<svg width="16" height="16" viewBox="0 0 16 16" fill="none" xmlns="http://www.w3.org/2000/svg">
<path d="M13.9996 8.47406C13.9996 7.95333 13.9588 7.57333 13.8704 7.17926H8.12207V9.5296H11.4962C11.4282 10.1137 11.0608 10.9933 10.2445 11.5844L10.2331 11.6631L12.0506 13.1196L12.1765 13.1326C13.3329 12.0278 13.9996 10.4022 13.9996 8.47406Z" fill="#1F3BB3"/>
<path d="M8.12271 14.6667C9.77575 14.6667 11.1635 14.1037 12.1771 13.1326L10.2451 11.5844C9.72815 11.9574 9.03426 12.2178 8.12271 12.2178C6.50368 12.2178 5.12954 11.113 4.6397 9.58594L4.5679 9.59224L2.67804 11.1052L2.65332 11.1763C3.66011 13.2452 5.72814 14.6667 8.12271 14.6667Z" fill="#1F3BB3"/>
<path d="M4.63942 9.58592C4.51018 9.19186 4.43537 8.7696 4.43537 8.33333C4.43537 7.897 4.51018 7.4748 4.63262 7.08073L4.6292 6.9968L2.71565 5.45953L2.65304 5.49034C2.2381 6.34887 2 7.31296 2 8.33333C2 9.35369 2.2381 10.3177 2.65304 11.1763L4.63942 9.58592Z" fill="#1F3BB3"/>
<path d="M8.12271 4.44887C9.27235 4.44887 10.0478 4.96257 10.49 5.39186L12.2179 3.64667C11.1567 2.6263 9.77575 2 8.12271 2C5.72814 2 3.66011 3.42147 2.65332 5.49034L4.6329 7.08073C5.12954 5.5537 6.50368 4.44887 8.12271 4.44887Z" fill="#1F3BB3"/>
</svg>
