<svg width="16" height="16" viewBox="0 0 16 16" fill="none" xmlns="http://www.w3.org/2000/svg">
<path d="M3.99649 14.6664V5.22023H0.852439V14.6664H3.99677H3.99649ZM2.42502 3.93074C3.5212 3.93074 4.20364 3.20533 4.20364 2.29885C4.18304 1.37179 3.5212 0.666687 2.44589 0.666687C1.36976 0.666687 0.666993 1.37179 0.666993 2.29885C0.666993 3.20533 1.34915 3.93074 2.40441 3.93074H2.42474H2.42502ZM5.73666 14.6664H8.88043V9.39186C8.88043 9.10982 8.90104 8.82723 8.98401 8.62585C9.21121 8.06149 9.72854 7.47738 10.5972 7.47738C11.7346 7.47738 12.1899 8.34353 12.1899 9.61354V14.6664H15.3337V9.25029C15.3337 6.34894 13.7828 4.99882 11.7143 4.99882C10.0184 4.99882 9.27358 5.94536 8.85983 6.5901H8.88071V5.2205H5.73693C5.77786 6.10668 5.73666 14.6667 5.73666 14.6667V14.6664Z" fill="#1F3BB3"/>
</svg>
