<svg width="165" height="36" viewBox="0 0 165 36" fill="none" xmlns="http://www.w3.org/2000/svg">
<path d="M2.90588 15.3108C2.20121 11.598 1.84888 9.7416 2.04796 8.23246C2.52328 4.62925 5.01856 1.61583 8.46994 0.476988C9.9155 0 11.805 0 15.5841 0V0C18.2752 0 19.6208 0 20.7771 0.296133C23.5184 0.998227 25.8022 2.88933 27.0031 5.45168C27.5097 6.53244 27.7606 7.8544 28.2623 10.4983L29.5641 17.3571C30.4156 21.8434 30.8413 24.0865 30.3068 25.8619C29.7177 27.8188 28.363 29.4548 26.5503 30.3985C24.9057 31.2546 22.6225 31.2546 18.0561 31.2546V31.2546C13.9953 31.2546 11.9649 31.2546 10.2828 30.5875C8.42432 29.8504 6.84677 28.5441 5.77607 26.8557C4.80696 25.3274 4.42836 23.3326 3.67117 19.343L2.90588 15.3108Z" fill="#35A1FF"/>
<path d="M7.5769 13.4589C7.5769 9.74675 7.5769 7.89066 8.09007 6.39584C9.0387 3.63259 11.2095 1.46179 13.9727 0.513169C15.4676 0 17.3237 0 21.0358 0V0C24.3768 0 26.0473 0 27.3926 0.461852C29.8795 1.31561 31.8333 3.26933 32.687 5.75626C33.1489 7.10159 33.1489 8.77207 33.1489 12.113V19.8893C33.1489 23.4197 33.1489 25.1849 32.5721 26.5773C31.8031 28.4338 30.3281 29.9089 28.4715 30.6779C27.0791 31.2546 25.3139 31.2546 21.7836 31.2546V31.2546C17.3706 31.2546 15.1641 31.2546 13.4236 30.5337C11.1029 29.5724 9.25911 27.7287 8.29785 25.408C7.5769 23.6675 7.5769 21.461 7.5769 17.048V13.4589Z" fill="#1F3BB3"/>
<path d="M17.9951 5.68266C15.9028 5.68266 14.2067 7.3788 14.2067 9.4711V21.7835C14.2067 23.8758 15.9028 25.572 17.9951 25.572H21.1548C22.2897 25.572 24.5043 25.4527 26.0268 23.8723C26.7465 23.097 27.4662 21.8446 27.4662 19.8467C27.4662 18.0874 26.8849 16.9543 26.2759 16.2982C25.6115 15.5826 24.615 15.1055 23.7292 14.9564C24.1721 14.7477 24.8088 14.3302 25.2794 13.4953C25.7776 12.6305 25.8883 11.7359 25.8883 10.9606C25.8883 10.0959 25.7499 8.42601 24.5596 7.20343C23.1202 5.7423 20.8503 5.68266 19.8537 5.68266H17.9951ZM18.4143 9.26095H19.0786C19.8537 9.26095 20.6842 9.26095 21.2932 9.76787C21.6254 10.0362 22.0129 10.573 22.0129 11.4377C22.0129 12.3025 21.653 12.8989 21.2655 13.1971C20.6565 13.6742 19.6876 13.7636 19.1063 13.7636H18.4143V9.26095ZM18.4143 17.163H19.5769C20.4351 17.163 21.8745 17.163 22.6219 17.9085C22.8987 18.1768 23.2032 18.7136 23.2032 19.5187C23.2032 20.2344 22.9818 20.8009 22.5942 21.1886C21.8191 21.9639 20.5181 21.9937 19.4385 21.9937H18.4143V17.163Z" fill="white"/>
<g style="mix-blend-mode:darken">
<circle cx="11.3653" cy="27.4662" r="7.57688" fill="#FF426F"/>
</g>
<path d="M37.5582 24.1587H41.5902V19.0907C41.5902 18.0267 41.6742 16.6827 42.5702 15.7307C43.0742 15.1987 43.7182 14.8907 44.5862 14.8907C45.2862 14.8907 45.8742 15.0587 46.4062 15.3387L46.6302 11.5587C46.1822 11.4187 45.8182 11.3627 45.3142 11.3627C44.5302 11.3627 43.8302 11.4747 43.1582 11.8947C42.5142 12.2867 41.9542 12.9307 41.5902 13.6307V11.6707H37.5582V24.1587ZM56.3502 13.0707C55.2022 11.5027 53.4942 11.2507 52.4302 11.2507C50.6942 11.2507 49.1822 11.8667 48.0902 12.9587C46.9422 14.1067 46.1582 15.8987 46.1582 17.9987C46.1582 19.6507 46.6622 21.2747 47.9782 22.6747C49.3502 24.1307 50.8622 24.5787 52.6542 24.5787C53.6902 24.5787 55.2582 24.3267 56.3502 22.6467V24.1587H60.3822V11.6707H56.3502V13.0707ZM53.4382 14.7227C54.1662 14.7227 55.0622 15.0027 55.6782 15.5907C56.2662 16.1507 56.6022 16.9907 56.6022 17.8867C56.6022 18.9507 56.1542 19.7347 55.6222 20.2387C55.0902 20.7707 54.3342 21.1067 53.5222 21.1067C52.5702 21.1067 51.7022 20.7147 51.1422 20.1267C50.7782 19.7347 50.3022 19.0067 50.3022 17.8867C50.3022 16.7667 50.8062 16.0387 51.2262 15.6187C51.7582 15.0867 52.5702 14.7227 53.4382 14.7227ZM62.3885 24.1587H66.4205V17.7467C66.4205 16.9347 66.5325 16.0387 67.2045 15.3667C67.5125 15.0307 68.0445 14.6947 68.8845 14.6947C69.6125 14.6947 70.1165 14.9467 70.4245 15.2547C71.0685 15.8987 71.0965 16.9347 71.0965 17.7467V24.1587H75.1285V16.2627C75.1285 15.2547 75.0445 13.7707 73.8685 12.5947C72.8045 11.5307 71.3765 11.3347 70.2845 11.3347C69.1085 11.3347 67.6525 11.5867 66.4205 13.1547V11.6707H62.3885V24.1587ZM90.7633 3.74667H86.7313V13.0707C85.7233 11.6987 84.2113 11.2507 82.8393 11.2507C81.1313 11.2507 79.5913 11.8947 78.4993 12.9307C77.2953 14.0787 76.5393 15.7867 76.5393 17.8587C76.5393 19.7907 77.2113 21.5827 78.4993 22.8707C79.5913 23.9907 80.9353 24.5787 82.7833 24.5787C84.9953 24.5787 86.1153 23.5427 86.7313 22.6467V24.1587H90.7633V3.74667ZM83.8193 14.7227C84.6873 14.7227 85.4433 14.9747 86.0873 15.6467C86.5633 16.1507 86.9833 16.8787 86.9833 17.9427C86.9833 18.9787 86.5353 19.7347 86.0593 20.1827C85.4153 20.7987 84.5193 21.1067 83.7633 21.1067C83.0633 21.1067 82.2793 20.8267 81.6633 20.2387C81.0753 19.6787 80.6833 18.8667 80.6833 17.9427C80.6833 16.9347 81.0753 16.1227 81.6633 15.5627C82.3073 14.9467 83.0073 14.7227 83.8193 14.7227ZM92.879 24.1587H96.911V17.7747C96.911 17.3547 96.939 15.9547 97.695 15.2267C98.087 14.8627 98.563 14.7227 99.095 14.7227C99.515 14.7227 100.019 14.8067 100.439 15.2267C101.055 15.8427 101.083 16.8227 101.083 17.6627V24.1587H105.115V17.9427C105.115 17.1307 105.199 16.1507 105.731 15.4787C106.067 15.0307 106.627 14.7227 107.299 14.7227C107.887 14.7227 108.419 14.9747 108.755 15.3947C109.287 16.0667 109.287 17.1867 109.287 17.8307V24.1587H113.319V16.2627C113.319 15.3667 113.235 13.6867 112.031 12.5387C111.275 11.8107 110.043 11.3627 108.531 11.3627C107.551 11.3627 106.739 11.5307 105.871 12.0627C105.059 12.5667 104.583 13.1547 104.275 13.6587C103.939 12.9027 103.407 12.2867 102.763 11.9227C101.923 11.4187 100.943 11.3627 100.411 11.3627C99.459 11.3627 97.947 11.5587 96.911 13.1267V11.6707H92.879V24.1587ZM124.933 13.0707C123.785 11.5027 122.077 11.2507 121.013 11.2507C119.277 11.2507 117.765 11.8667 116.673 12.9587C115.525 14.1067 114.741 15.8987 114.741 17.9987C114.741 19.6507 115.245 21.2747 116.561 22.6747C117.933 24.1307 119.445 24.5787 121.237 24.5787C122.273 24.5787 123.841 24.3267 124.933 22.6467V24.1587H128.965V11.6707H124.933V13.0707ZM122.021 14.7227C122.749 14.7227 123.645 15.0027 124.261 15.5907C124.849 16.1507 125.185 16.9907 125.185 17.8867C125.185 18.9507 124.737 19.7347 124.205 20.2387C123.673 20.7707 122.917 21.1067 122.105 21.1067C121.153 21.1067 120.285 20.7147 119.725 20.1267C119.361 19.7347 118.885 19.0067 118.885 17.8867C118.885 16.7667 119.389 16.0387 119.809 15.6187C120.341 15.0867 121.153 14.7227 122.021 14.7227ZM137.607 14.9187V11.6707H135.115V7.63867H131.083V11.6707H129.683V14.9187H131.083V24.1587H135.115V14.9187H137.607ZM141.83 16.2067C141.942 15.6467 142.222 15.1987 142.53 14.8627C142.922 14.4707 143.538 14.0507 144.574 14.0507C145.386 14.0507 146.03 14.3307 146.478 14.7507C147.066 15.3107 147.262 16.0947 147.29 16.2067H141.83ZM151.014 18.1947C151.014 16.6547 150.734 14.6947 149.25 13.1267C147.71 11.5027 145.694 11.2507 144.294 11.2507C142.894 11.2507 141.018 11.5307 139.506 13.0427C138.246 14.3307 137.602 16.1787 137.602 17.9707C137.602 20.0427 138.386 21.6947 139.478 22.7867C140.934 24.2427 142.586 24.5787 144.462 24.5787C145.862 24.5787 147.206 24.3827 148.41 23.6547C149.138 23.2067 150.258 22.2827 150.818 20.5187L147.01 20.1267C146.674 20.8267 146.198 21.1347 146.142 21.1627C145.722 21.4147 145.106 21.5267 144.518 21.5267C143.902 21.5267 143.062 21.4147 142.446 20.7427C141.942 20.1827 141.69 19.2867 141.69 18.6147H151.014V18.1947ZM161.651 12.3147C160.643 11.7267 159.355 11.2507 157.507 11.2507C156.359 11.2507 154.847 11.4747 153.727 12.5107C152.999 13.1827 152.523 14.1907 152.523 15.3947C152.523 16.3467 152.831 17.0467 153.419 17.6627C153.951 18.1947 154.707 18.5867 155.435 18.8107L156.443 19.1187C157.031 19.2867 157.395 19.3987 157.675 19.5667C158.039 19.7907 158.123 20.0707 158.123 20.2947C158.123 20.6027 157.955 20.9107 157.703 21.1067C157.339 21.3867 156.695 21.3867 156.443 21.3867C155.911 21.3867 155.323 21.2747 154.763 20.9947C154.343 20.7987 153.783 20.4067 153.391 20.0707L151.683 22.7867C153.307 24.2147 155.127 24.5787 156.807 24.5787C158.123 24.5787 159.635 24.3827 160.867 23.1507C161.427 22.5907 162.155 21.5267 162.155 19.8747C162.155 18.9227 161.903 18.1667 161.175 17.4947C160.531 16.9067 159.803 16.6267 159.103 16.4027L158.039 16.0667C157.535 15.8987 157.115 15.8147 156.835 15.6467C156.639 15.5347 156.443 15.3667 156.443 15.0867C156.443 14.8907 156.555 14.6667 156.695 14.5267C156.947 14.2747 157.423 14.1627 157.843 14.1627C158.627 14.1627 159.439 14.4987 160.055 14.8627L161.651 12.3147Z" fill="#1F3BB3"/>
</svg>
